# xmcd CD database file
#
# Track frame offsets:
#	150
#	16139
#	32739
#	42947
#	58193
#	74842
#	91021
#	105121
#	114944
#	133213
#	148038
#	166464
#	178296
#	198170
#	215016
#	230567
#	247328
#	263023
#	277787
#	294389
#
# Disc length: 4151 seconds
#
# Revision: 2
# Processed by: cddbd v1.4b41PL1 Copyright (c) Steve Scherf et al.
# Submitted via: Feurio! 1.50.2ß - http://www.feurio.com
#
DISCID=29103514
DTITLE=??? - Celtic Dreams
DYEAR=1900
DGENRE=
TTITLE0=I still haven't found what I'm looking for
TTITLE1=My love is like a red, red rose
TTITLE2=Riverdance
TTITLE3=My heart will go on
TTITLE4=The town I loved so well
TTITLE5=Molly Malone
TTITLE6=I know where I'm going
TTITLE7=Theme from Harry's Game
TTITLE8=Carrickfergus
TTITLE9=The spinning wheel
TTITLE10=She moved through the fair
TTITLE11=The mountains of Mourne
TTITLE12=Rare old times
TTITLE13=Skye Boat Song
TTITLE14=Love's old sweet song
TTITLE15=When - your were sweet sixteen
TTITLE16=Emerald dreams
TTITLE17=Down by the Sally Gardens
TTITLE18=The water is wide
TTITLE19=I'll take you home again, Kathleen
EXTD=
EXTT0=
EXTT1=
EXTT2=
EXTT3=
EXTT4=
EXTT5=
EXTT6=
EXTT7=
EXTT8=
EXTT9=
EXTT10=
EXTT11=
EXTT12=
EXTT13=
EXTT14=
EXTT15=
EXTT16=
EXTT17=
EXTT18=
EXTT19=
PLAYORDER=
